<svg xmlns="http://www.w3.org/2000/svg" class="pink" display="none">
  <!-- width="74.318" height="23.041" -->
  <symbol id="logo-mobile">
    <title>Pink logotype</title>
  	<path d="M0,1.46c0-0.713,0.585-1.297,1.266-1.297h7.24c5.13,0,8.507,2.726,8.507,7.205v0.064c0,4.901-4.091,7.431-8.928,7.431
  	h-5.52v6.881c0,0.714-0.584,1.297-1.299,1.297C0.585,23.041,0,22.458,0,21.744V1.46z M8.182,12.527
  	c3.767,0,6.234-2.012,6.234-4.998V7.464c0-3.245-2.435-4.932-6.104-4.932H2.565v9.995H8.182z"/>
  	<path d="M22.448,1.298C22.448,0.584,23.032,0,23.714,0c0.714,0,1.299,0.584,1.299,1.298v20.446c0,0.714-0.584,1.297-1.299,1.297
  	c-0.682,0-1.267-0.583-1.267-1.297V1.298z"/>
  	<path d="M31.138,1.33c0-0.68,0.584-1.265,1.266-1.265h0.357c0.584,0,0.942,0.292,1.299,0.747L47.859,18.4V1.266
  	C47.859,0.584,48.412,0,49.125,0c0.682,0,1.234,0.584,1.234,1.266v20.51c0,0.682-0.487,1.2-1.17,1.2H49.06
  	c-0.552,0-0.941-0.324-1.332-0.778L33.638,4.187v17.589c0,0.682-0.552,1.265-1.267,1.265c-0.682,0-1.233-0.583-1.233-1.265V1.33z"/>
  	<path d="M56.039,1.298C56.039,0.584,56.623,0,57.304,0c0.715,0,1.3,0.584,1.3,1.298v12.429L71.558,0.455
  	C71.849,0.195,72.142,0,72.565,0c0.682,0,1.233,0.617,1.233,1.266c0,0.357-0.163,0.649-0.422,0.909l-8.053,7.983l8.637,10.645
  	c0.228,0.292,0.357,0.553,0.357,0.941c0,0.681-0.584,1.297-1.299,1.297c-0.486,0-0.812-0.259-1.039-0.583L63.505,11.91l-4.901,4.9
  	v4.934c0,0.714-0.585,1.297-1.3,1.297c-0.682,0-1.266-0.583-1.266-1.297V1.298z"/>
  </symbol>
  
  <!-- width="146.3" height="40.375" -->
  <symbol id="logo-tablet-header">
    <title>Pink logotype</title>
    <path fill="#fff" d="M71.874 18.66c0-.707.58-1.287 1.256-1.287h7.18c5.087 0 8.436 2.704 8.436 7.147v.064c0 4.86-4.057 7.373-8.854 7.373h-5.474v6.825c0 .708-.58 1.288-1.288 1.288-.676 0-1.256-.58-1.256-1.288v-20.12zm8.114 10.98c3.734 0 6.182-1.996 6.182-4.958v-.064c0-3.22-2.415-4.894-6.054-4.894h-5.698v9.917h5.57zM93.603 18.5c0-.708.58-1.288 1.255-1.288.71 0 1.288.58 1.288 1.288v20.283c0 .708-.58 1.288-1.288 1.288-.676 0-1.255-.58-1.255-1.287V18.5zM102.744 18.532c0-.676.58-1.256 1.256-1.256h.354c.58 0 .934.29 1.288.74l13.684 17.45V18.468c0-.676.547-1.256 1.256-1.256.676 0 1.223.58 1.223 1.256v20.348c0 .676-.482 1.19-1.158 1.19h-.13c-.547 0-.933-.32-1.32-.77l-13.973-17.87v17.45c0 .676-.547 1.256-1.255 1.256-.678 0-1.225-.58-1.225-1.256V18.532zM128.174 18.5c0-.708.58-1.288 1.256-1.288.708 0 1.287.58 1.287 1.288v12.33l12.847-13.167c.29-.257.58-.45.998-.45.676 0 1.224.61 1.224 1.255 0 .354-.16.644-.42.9l-7.983 7.92 8.564 10.562c.225.29.354.547.354.934 0 .676-.578 1.288-1.286 1.288-.483 0-.806-.258-1.03-.58L135.58 29.03l-4.86 4.86v4.894c0 .708-.58 1.288-1.288 1.288-.677 0-1.256-.58-1.256-1.288V18.5z"/>
    <path d="M60.498 28.32c0-.054-.01-.105-.016-.158-.006-.05-.01-.098-.02-.146-.002-.01 0-.017-.003-.025L55.286 6.65c-.36-2.347-2.593-6.65-8.6-6.65-.828 0-1.5.67-1.5 1.5s.672 1.5 1.5 1.5c4.857 0 5.576 3.73 5.64 4.143l4.767 19.7H55.02c-.74-5.926-5.8-10.53-11.926-10.53s-11.186 4.604-11.927 10.53H29.46c-.743-5.926-5.803-10.53-11.928-10.53S6.346 20.917 5.604 26.843H3.407l4.74-19.552.027-.147C8.197 6.973 8.802 3 13.812 3c.83 0 1.5-.67 1.5-1.5s-.67-1.5-1.5-1.5c-6.006 0-8.238 4.303-8.6 6.65L.043 27.99c-.002.01 0 .017-.003.025-.012.05-.015.098-.02.146-.008.054-.017.105-.017.16L0 28.343c0 .035.008.068.01.103.004.058.007.115.017.17.01.047.023.092.036.137.014.048.026.096.044.142.018.046.042.09.064.133.022.04.043.084.068.123.026.04.057.077.086.114.03.04.06.078.093.113.032.033.067.062.102.092.038.033.075.067.116.097.04.026.082.05.123.072.04.024.082.05.127.07.05.02.1.037.152.054.035.012.067.028.104.037.008.002.015 0 .023.003.107.023.217.04.33.04h4.104c.742 5.926 5.802 10.53 11.927 10.53s11.185-4.604 11.926-10.53h1.708c.742 5.926 5.802 10.53 11.927 10.53s11.187-4.604 11.928-10.53H59c.114 0 .224-.017.33-.04.01-.002.016 0 .024-.003.037-.01.07-.025.105-.037.05-.017.103-.032.15-.054.046-.02.087-.046.13-.07.04-.023.083-.046.122-.073.042-.03.08-.064.117-.098.033-.03.07-.06.1-.092.035-.035.064-.074.094-.113.03-.037.06-.074.086-.114.025-.04.045-.082.067-.124.023-.044.046-.088.064-.134.02-.046.032-.094.045-.142.013-.045.027-.09.036-.136.01-.056.014-.113.018-.17.002-.035.01-.068.01-.104.002-.008 0-.016 0-.024zM17.53 37.375c-4.474 0-8.18-3.26-8.895-7.53-.082-.49-.135-.99-.135-1.5s.053-1.012.135-1.5c.716-4.272 4.42-7.532 8.896-7.532s8.182 3.26 8.897 7.53c.082.49.135.99.135 1.5s-.053 1.012-.135 1.5c-.715 4.273-4.42 7.532-8.896 7.532zm25.564 0c-4.475 0-8.18-3.26-8.896-7.53-.082-.49-.135-.99-.135-1.5s.053-1.012.135-1.5c.716-4.272 4.42-7.532 8.896-7.532s8.18 3.26 8.896 7.53c.082.49.135.99.135 1.5s-.053 1.012-.135 1.5c-.716 4.273-4.42 7.532-8.896 7.532z"/>
  </symbol>

  <symbol id="logo-full-header">
    <title>Pink logotype</title>
    <g fill="#FFF">
      <path d="M71.874 18.661c0-.708.58-1.288 1.256-1.288h7.18c5.087 0 8.436 2.704 8.436 7.147v.064c0 4.861-4.057 7.373-8.854 7.373h-5.474v6.825c0 .708-.58 1.288-1.288 1.288-.676 0-1.256-.58-1.256-1.288V18.661zM79.988 29.64c3.734 0 6.182-1.996 6.182-4.958v-.064c0-3.22-2.415-4.894-6.054-4.894h-5.698v9.917H79.988zM93.603 18.5c0-.708.579-1.288 1.255-1.288.709 0 1.288.58 1.288 1.288v20.283c0 .708-.579 1.288-1.288 1.288-.676 0-1.255-.58-1.255-1.288V18.5zM102.744 18.532c0-.676.579-1.256 1.256-1.256h.354c.58 0 .934.29 1.288.74l13.684 17.45V18.468c0-.676.547-1.256 1.256-1.256.676 0 1.223.58 1.223 1.256v20.348c0 .676-.482 1.191-1.158 1.191h-.129c-.548 0-.934-.322-1.32-.772l-13.974-17.869v17.45c0 .676-.547 1.256-1.255 1.256-.677 0-1.224-.58-1.224-1.256V18.532zM128.174 18.5c0-.708.579-1.288 1.256-1.288.708 0 1.287.58 1.287 1.288v12.331l12.847-13.168c.29-.257.579-.451.998-.451.676 0 1.224.612 1.224 1.256 0 .354-.161.644-.419.901l-7.984 7.92 8.564 10.561c.225.29.354.547.354.934 0 .676-.579 1.288-1.287 1.288-.483 0-.806-.258-1.03-.58l-8.403-10.463-4.862 4.861v4.894c0 .708-.579 1.288-1.287 1.288-.677 0-1.256-.58-1.256-1.288V18.5z"/>
    </g>
    <path d="M98.498,9.875c-2.002,0-3.624-1.623-3.624-3.624c0,2.001-1.622,3.624-3.624,3.624 c2.002,0,3.624,1.623,3.624,3.624C94.874,11.498,96.496,9.875,98.498,9.875z"/>
    <g fill="#FFF">
      <path d="M43.094,19.312c0.246,0,0.488,0.014,0.729,0.033c-0.438-0.728-1.227-1.221-2.136-1.221 c-0.877,0-1.614-0.568-1.884-1.354c-0.727,0.207-1.425,0.482-2.089,0.816c0.062,0.017,0.123,0.038,0.189,0.038c1.104,0,2,0.896,2,2 c0,0.096-0.015,0.188-0.028,0.28C40.875,19.523,41.959,19.312,43.094,19.312z"/>
      <path d="M60.498,28.32c0-0.054-0.009-0.105-0.016-0.158c-0.006-0.049-0.009-0.098-0.02-0.146 c-0.002-0.009-0.001-0.017-0.003-0.025L55.287,6.651C54.926,4.303,52.694,0,46.688,0c-0.829,0-1.5,0.671-1.5,1.5s0.671,1.5,1.5,1.5 c4.856,0,5.575,3.729,5.639,4.143l4.767,19.701h-2.073c-0.445-3.557-2.452-6.628-5.304-8.523c-0.898,0.379-1.53,1.269-1.53,2.303 c0,0.087-0.015,0.171-0.026,0.255c1.992,1.358,3.415,3.489,3.83,5.965c0.082,0.489,0.135,0.988,0.135,1.5s-0.053,1.011-0.135,1.5 c-0.716,4.272-4.421,7.531-8.896,7.531s-8.181-3.259-8.896-7.531c-0.082-0.489-0.135-0.988-0.135-1.5s0.053-1.011,0.135-1.5 c0.147-0.879,0.427-1.711,0.808-2.484c-1.033-0.078-1.85-0.932-1.85-1.985c0-0.189-0.077-0.358-0.193-0.49 c-0.938,1.469-1.57,3.151-1.796,4.958h-1.708c-0.742-5.927-5.802-10.531-11.927-10.531S6.346,20.917,5.604,26.844H3.407 L8.146,7.291l0.028-0.148C8.197,6.973,8.802,3,13.812,3c0.829,0,1.5-0.671,1.5-1.5S14.641,0,13.812,0 C7.806,0,5.574,4.303,5.213,6.651L0.042,27.99c-0.002,0.009-0.001,0.017-0.003,0.025c-0.011,0.049-0.014,0.098-0.02,0.146 c-0.007,0.053-0.016,0.104-0.016,0.158C0.002,28.328,0,28.336,0,28.344c0,0.035,0.008,0.068,0.01,0.103 c0.004,0.058,0.007,0.115,0.017,0.171c0.009,0.046,0.023,0.091,0.036,0.136c0.014,0.048,0.026,0.096,0.044,0.142 c0.018,0.046,0.042,0.09,0.064,0.133c0.021,0.042,0.042,0.085,0.067,0.124c0.026,0.04,0.057,0.077,0.086,0.114 c0.03,0.039,0.06,0.078,0.093,0.113c0.032,0.033,0.067,0.062,0.102,0.092c0.039,0.033,0.076,0.067,0.117,0.097 c0.039,0.027,0.082,0.05,0.123,0.073c0.042,0.024,0.083,0.051,0.128,0.07c0.049,0.021,0.101,0.037,0.152,0.054 c0.036,0.012,0.068,0.028,0.105,0.037c0.008,0.002,0.015,0.001,0.023,0.003c0.107,0.023,0.217,0.039,0.331,0.039h0.001h4.103 c0.071,0.57,0.194,1.123,0.343,1.666c0.017-0.062,0.038-0.121,0.038-0.188c0-1.104,0.896-2,2-2c0.208,0,0.405,0.041,0.594,0.1 C8.534,29.068,8.5,28.71,8.5,28.344c0-0.512,0.053-1.011,0.135-1.5c0.716-4.272,4.421-7.531,8.896-7.531s8.181,3.259,8.896,7.531 c0.082,0.489,0.135,0.988,0.135,1.5s-0.053,1.011-0.135,1.5c-0.716,4.272-4.421,7.531-8.896,7.531 c-2.048,0-3.931-0.688-5.444-1.839c-0.356,0.33-0.83,0.536-1.354,0.536c-0.413,0-0.749,0.336-0.749,0.748 c0,0.265-0.054,0.516-0.147,0.747c2.086,1.747,4.765,2.808,7.694,2.808c6.125,0,11.186-4.604,11.927-10.531h1.708 c0.742,5.927,5.802,10.531,11.927,10.531s11.186-4.604,11.927-10.531h3.978H59c0.114,0,0.224-0.016,0.331-0.039 c0.008-0.002,0.015-0.001,0.023-0.003c0.037-0.009,0.07-0.025,0.105-0.037c0.052-0.017,0.104-0.032,0.152-0.054 c0.045-0.02,0.086-0.046,0.128-0.07c0.042-0.023,0.084-0.046,0.123-0.073c0.042-0.029,0.079-0.063,0.117-0.097 c0.034-0.029,0.07-0.059,0.102-0.092c0.034-0.035,0.063-0.074,0.093-0.113c0.029-0.037,0.06-0.074,0.086-0.114 c0.025-0.039,0.045-0.082,0.067-0.124c0.023-0.043,0.046-0.087,0.064-0.133c0.019-0.046,0.031-0.094,0.044-0.142 c0.013-0.045,0.027-0.09,0.036-0.136c0.01-0.056,0.013-0.113,0.017-0.171c0.002-0.034,0.01-0.067,0.01-0.103 C60.5,28.336,60.498,28.328,60.498,28.32z"/>
    </g>
    <path d="M50.686 16.125c-2.485 0-4.499-2.014-4.499-4.499 0 2.485-2.014 4.499-4.499 4.499 2.485 0 4.499 2.014 4.499 4.499C46.187 18.139 48.2 16.125 50.686 16.125zM37.904 19.626c-1.519 0-2.749-1.23-2.749-2.749 0 1.519-1.23 2.749-2.749 2.749 1.519 0 2.749 1.23 2.749 2.749C35.155 20.856 36.386 19.626 37.904 19.626zM10.734 34.072c-1.519 0-2.749-1.23-2.749-2.75 0 1.52-1.23 2.75-2.749 2.75 1.519 0 2.749 1.23 2.749 2.748C7.985 35.303 9.215 34.072 10.734 34.072z"/>
  </symbol>

  <symbol id="logo-tablet-footer">
    <title>Pink logotype</title>
    <path fill="#1d2631" d="M71.874 18.66c0-.707.58-1.287 1.256-1.287h7.18c5.087 0 8.436 2.704 8.436 7.147v.064c0 4.86-4.057 7.373-8.854 7.373h-5.474v6.825c0 .708-.58 1.288-1.288 1.288-.676 0-1.256-.58-1.256-1.288v-20.12zm8.114 10.98c3.734 0 6.182-1.996 6.182-4.958v-.064c0-3.22-2.415-4.894-6.054-4.894h-5.698v9.917h5.57zM93.603 18.5c0-.708.58-1.288 1.255-1.288.71 0 1.288.58 1.288 1.288v20.283c0 .708-.58 1.288-1.288 1.288-.676 0-1.255-.58-1.255-1.287V18.5zM102.744 18.532c0-.676.58-1.256 1.256-1.256h.354c.58 0 .934.29 1.288.74l13.684 17.45V18.468c0-.676.547-1.256 1.256-1.256.676 0 1.223.58 1.223 1.256v20.348c0 .676-.482 1.19-1.158 1.19h-.13c-.547 0-.933-.32-1.32-.77l-13.973-17.87v17.45c0 .676-.547 1.256-1.255 1.256-.678 0-1.225-.58-1.225-1.256V18.532zM128.174 18.5c0-.708.58-1.288 1.256-1.288.708 0 1.287.58 1.287 1.288v12.33l12.847-13.167c.29-.257.58-.45.998-.45.676 0 1.224.61 1.224 1.255 0 .354-.16.644-.42.9l-7.983 7.92 8.564 10.562c.225.29.354.547.354.934 0 .676-.578 1.288-1.286 1.288-.483 0-.806-.258-1.03-.58L135.58 29.03l-4.86 4.86v4.894c0 .708-.58 1.288-1.288 1.288-.677 0-1.256-.58-1.256-1.288V18.5z"/>
    <path d="M60.498 28.32c0-.054-.01-.105-.016-.158-.006-.05-.01-.098-.02-.146-.002-.01 0-.017-.003-.025L55.286 6.65c-.36-2.347-2.593-6.65-8.6-6.65-.828 0-1.5.67-1.5 1.5s.672 1.5 1.5 1.5c4.857 0 5.576 3.73 5.64 4.143l4.767 19.7H55.02c-.74-5.926-5.8-10.53-11.926-10.53s-11.186 4.604-11.927 10.53H29.46c-.743-5.926-5.803-10.53-11.928-10.53S6.346 20.917 5.604 26.843H3.407l4.74-19.552.027-.147C8.197 6.973 8.802 3 13.812 3c.83 0 1.5-.67 1.5-1.5s-.67-1.5-1.5-1.5c-6.006 0-8.238 4.303-8.6 6.65L.043 27.99c-.002.01 0 .017-.003.025-.012.05-.015.098-.02.146-.008.054-.017.105-.017.16L0 28.343c0 .035.008.068.01.103.004.058.007.115.017.17.01.047.023.092.036.137.014.048.026.096.044.142.018.046.042.09.064.133.022.04.043.084.068.123.026.04.057.077.086.114.03.04.06.078.093.113.032.033.067.062.102.092.038.033.075.067.116.097.04.026.082.05.123.072.04.024.082.05.127.07.05.02.1.037.152.054.035.012.067.028.104.037.008.002.015 0 .023.003.107.023.217.04.33.04h4.104c.742 5.926 5.802 10.53 11.927 10.53s11.185-4.604 11.926-10.53h1.708c.742 5.926 5.802 10.53 11.927 10.53s11.187-4.604 11.928-10.53H59c.114 0 .224-.017.33-.04.01-.002.016 0 .024-.003.037-.01.07-.025.105-.037.05-.017.103-.032.15-.054.046-.02.087-.046.13-.07.04-.023.083-.046.122-.073.042-.03.08-.064.117-.098.033-.03.07-.06.1-.092.035-.035.064-.074.094-.113.03-.037.06-.074.086-.114.025-.04.045-.082.067-.124.023-.044.046-.088.064-.134.02-.046.032-.094.045-.142.013-.045.027-.09.036-.136.01-.056.014-.113.018-.17.002-.035.01-.068.01-.104.002-.008 0-.016 0-.024zM17.53 37.375c-4.474 0-8.18-3.26-8.895-7.53-.082-.49-.135-.99-.135-1.5s.053-1.012.135-1.5c.716-4.272 4.42-7.532 8.896-7.532s8.182 3.26 8.897 7.53c.082.49.135.99.135 1.5s-.053 1.012-.135 1.5c-.715 4.273-4.42 7.532-8.896 7.532zm25.564 0c-4.475 0-8.18-3.26-8.896-7.53-.082-.49-.135-.99-.135-1.5s.053-1.012.135-1.5c.716-4.272 4.42-7.532 8.896-7.532s8.18 3.26 8.896 7.53c.082.49.135.99.135 1.5s-.053 1.012-.135 1.5c-.716 4.273-4.42 7.532-8.896 7.532z"/>
  </symbol>

  <symbol id="logo-full-footer">
    <title>Pink logotype</title>
    <g>
      <path fill="#1d2631" d="M71.874 18.661c0-.708.58-1.288 1.256-1.288h7.18c5.087 0 8.436 2.704 8.436 7.147v.064c0 4.861-4.057 7.373-8.854 7.373h-5.474v6.825c0 .708-.58 1.288-1.288 1.288-.676 0-1.256-.58-1.256-1.288V18.661zM79.988 29.64c3.734 0 6.182-1.996 6.182-4.958v-.064c0-3.22-2.415-4.894-6.054-4.894h-5.698v9.917H79.988zM93.603 18.5c0-.708.579-1.288 1.255-1.288.709 0 1.288.58 1.288 1.288v20.283c0 .708-.579 1.288-1.288 1.288-.676 0-1.255-.58-1.255-1.288V18.5zM102.744 18.532c0-.676.579-1.256 1.256-1.256h.354c.58 0 .934.29 1.288.74l13.684 17.45V18.468c0-.676.547-1.256 1.256-1.256.676 0 1.223.58 1.223 1.256v20.348c0 .676-.482 1.191-1.158 1.191h-.129c-.548 0-.934-.322-1.32-.772l-13.974-17.869v17.45c0 .676-.547 1.256-1.255 1.256-.677 0-1.224-.58-1.224-1.256V18.532zM128.174 18.5c0-.708.579-1.288 1.256-1.288.708 0 1.287.58 1.287 1.288v12.331l12.847-13.168c.29-.257.579-.451.998-.451.676 0 1.224.612 1.224 1.256 0 .354-.161.644-.419.901l-7.984 7.92 8.564 10.561c.225.29.354.547.354.934 0 .676-.579 1.288-1.287 1.288-.483 0-.806-.258-1.03-.58l-8.403-10.463-4.862 4.861v4.894c0 .708-.579 1.288-1.287 1.288-.677 0-1.256-.58-1.256-1.288V18.5z"/>
    </g>
    <path fill="#D22856" d="M98.498,9.875c-2.002,0-3.624-1.623-3.624-3.624c0,2.001-1.622,3.624-3.624,3.624 c2.002,0,3.624,1.623,3.624,3.624C94.874,11.498,96.496,9.875,98.498,9.875z"/>
    <g>
      <path fill="#d22856" d="M43.094,19.312c0.246,0,0.488,0.014,0.729,0.033c-0.438-0.728-1.227-1.221-2.136-1.221 c-0.877,0-1.614-0.568-1.884-1.354c-0.727,0.207-1.425,0.482-2.089,0.816c0.062,0.017,0.123,0.038,0.189,0.038c1.104,0,2,0.896,2,2 c0,0.096-0.015,0.188-0.028,0.28C40.875,19.523,41.959,19.312,43.094,19.312z"/>
      <path fill="#d22856" d="M60.498,28.32c0-0.054-0.009-0.105-0.016-0.158c-0.006-0.049-0.009-0.098-0.02-0.146 c-0.002-0.009-0.001-0.017-0.003-0.025L55.287,6.651C54.926,4.303,52.694,0,46.688,0c-0.829,0-1.5,0.671-1.5,1.5s0.671,1.5,1.5,1.5 c4.856,0,5.575,3.729,5.639,4.143l4.767,19.701h-2.073c-0.445-3.557-2.452-6.628-5.304-8.523c-0.898,0.379-1.53,1.269-1.53,2.303 c0,0.087-0.015,0.171-0.026,0.255c1.992,1.358,3.415,3.489,3.83,5.965c0.082,0.489,0.135,0.988,0.135,1.5s-0.053,1.011-0.135,1.5 c-0.716,4.272-4.421,7.531-8.896,7.531s-8.181-3.259-8.896-7.531c-0.082-0.489-0.135-0.988-0.135-1.5s0.053-1.011,0.135-1.5 c0.147-0.879,0.427-1.711,0.808-2.484c-1.033-0.078-1.85-0.932-1.85-1.985c0-0.189-0.077-0.358-0.193-0.49 c-0.938,1.469-1.57,3.151-1.796,4.958h-1.708c-0.742-5.927-5.802-10.531-11.927-10.531S6.346,20.917,5.604,26.844H3.407 L8.146,7.291l0.028-0.148C8.197,6.973,8.802,3,13.812,3c0.829,0,1.5-0.671,1.5-1.5S14.641,0,13.812,0 C7.806,0,5.574,4.303,5.213,6.651L0.042,27.99c-0.002,0.009-0.001,0.017-0.003,0.025c-0.011,0.049-0.014,0.098-0.02,0.146 c-0.007,0.053-0.016,0.104-0.016,0.158C0.002,28.328,0,28.336,0,28.344c0,0.035,0.008,0.068,0.01,0.103 c0.004,0.058,0.007,0.115,0.017,0.171c0.009,0.046,0.023,0.091,0.036,0.136c0.014,0.048,0.026,0.096,0.044,0.142 c0.018,0.046,0.042,0.09,0.064,0.133c0.021,0.042,0.042,0.085,0.067,0.124c0.026,0.04,0.057,0.077,0.086,0.114 c0.03,0.039,0.06,0.078,0.093,0.113c0.032,0.033,0.067,0.062,0.102,0.092c0.039,0.033,0.076,0.067,0.117,0.097 c0.039,0.027,0.082,0.05,0.123,0.073c0.042,0.024,0.083,0.051,0.128,0.07c0.049,0.021,0.101,0.037,0.152,0.054 c0.036,0.012,0.068,0.028,0.105,0.037c0.008,0.002,0.015,0.001,0.023,0.003c0.107,0.023,0.217,0.039,0.331,0.039h0.001h4.103 c0.071,0.57,0.194,1.123,0.343,1.666c0.017-0.062,0.038-0.121,0.038-0.188c0-1.104,0.896-2,2-2c0.208,0,0.405,0.041,0.594,0.1 C8.534,29.068,8.5,28.71,8.5,28.344c0-0.512,0.053-1.011,0.135-1.5c0.716-4.272,4.421-7.531,8.896-7.531s8.181,3.259,8.896,7.531 c0.082,0.489,0.135,0.988,0.135,1.5s-0.053,1.011-0.135,1.5c-0.716,4.272-4.421,7.531-8.896,7.531 c-2.048,0-3.931-0.688-5.444-1.839c-0.356,0.33-0.83,0.536-1.354,0.536c-0.413,0-0.749,0.336-0.749,0.748 c0,0.265-0.054,0.516-0.147,0.747c2.086,1.747,4.765,2.808,7.694,2.808c6.125,0,11.186-4.604,11.927-10.531h1.708 c0.742,5.927,5.802,10.531,11.927,10.531s11.186-4.604,11.927-10.531h3.978H59c0.114,0,0.224-0.016,0.331-0.039 c0.008-0.002,0.015-0.001,0.023-0.003c0.037-0.009,0.07-0.025,0.105-0.037c0.052-0.017,0.104-0.032,0.152-0.054 c0.045-0.02,0.086-0.046,0.128-0.07c0.042-0.023,0.084-0.046,0.123-0.073c0.042-0.029,0.079-0.063,0.117-0.097 c0.034-0.029,0.07-0.059,0.102-0.092c0.034-0.035,0.063-0.074,0.093-0.113c0.029-0.037,0.06-0.074,0.086-0.114 c0.025-0.039,0.045-0.082,0.067-0.124c0.023-0.043,0.046-0.087,0.064-0.133c0.019-0.046,0.031-0.094,0.044-0.142 c0.013-0.045,0.027-0.09,0.036-0.136c0.01-0.056,0.013-0.113,0.017-0.171c0.002-0.034,0.01-0.067,0.01-0.103 C60.5,28.336,60.498,28.328,60.498,28.32z"/>
    </g>
    <path fill="#1d2631" d="M50.686 16.125c-2.485 0-4.499-2.014-4.499-4.499 0 2.485-2.014 4.499-4.499 4.499 2.485 0 4.499 2.014 4.499 4.499C46.187 18.139 48.2 16.125 50.686 16.125zM37.904 19.626c-1.519 0-2.749-1.23-2.749-2.749 0 1.519-1.23 2.749-2.749 2.749 1.519 0 2.749 1.23 2.749 2.749C35.155 20.856 36.386 19.626 37.904 19.626zM10.734 34.072c-1.519 0-2.749-1.23-2.749-2.75 0 1.52-1.23 2.75-2.749 2.75 1.519 0 2.749 1.23 2.749 2.748C7.985 35.303 9.215 34.072 10.734 34.072z"/>
  </symbol>
</svg>