<svg version="1.1" id="Layer_1" xmlns="http://www.w3.org/2000/svg" xmlns:xlink="http://www.w3.org/1999/xlink" x="0px" y="0px"
	 viewBox="0 0 260.6 301.8" style="enable-background:new 0 0 260.6 301.8;" xml:space="preserve">
<style type="text/css">
	.st0{fill:#EEEDED;}
	.st1{fill:#D12856;}
	.st2{fill:none;stroke:#D12856;stroke-width:11;stroke-miterlimit:10;}
	@media screen and (min-width: 290px) {
		.st0{fill:#DEDEDE;}
	}
</style>
<g>
	<path class="st0" d="M256.3,138.2c-4.8-18.1-13.3-34.6-24.7-48.7l7.5-7.5c5.3-5.3,5.3-13.9,0-19.2c-2.9-2.9-6.8-4.1-10.6-3.8
		c-3.1,0.2-6.2,1.4-8.6,3.8l-7.5,7.5c-7.9-6.4-16.7-11.9-26-16.3c-8.4-4-17.3-7.2-26.5-9.3c-0.1,0-0.2,0-0.3,0
		c-4-0.9-8.1-1.7-12.2-2.3v-7v-0.1V34h6c9.4,0,17-7.6,17-17c0-9.4-7.6-17-17-17h-6h-34h-7.1c-1.5,0-2.9,0.3-4.3,0.6c0,0,0,0,0,0
		C94.6,2.6,89.3,9.1,89.3,17c0,9.4,7.6,17,17,17h7.1v8.3C69.5,48,32.7,75.5,13.7,113.5c-3.8,7.6-6.9,15.5-9.1,23.8
		c-3,10.9-4.6,22.3-4.6,34.2c0,56.3,35.8,104.2,85.9,122.4c13.9,5,28.8,7.9,44.4,7.9c6.5,0,12.9-0.5,19.1-1.4c0.7-0.1,1.3-0.3,2-0.4
		c18.3-3,35.4-9.8,50.4-19.6c20.6-13.6,37.1-32.8,47.3-55.4c7.4-16.4,11.6-34.4,11.6-53.5C260.6,160,259.1,148.8,256.3,138.2z
		 M198.4,239.6c-12.4,12.4-27.6,20.9-44.2,25.1c-5.7,1.4-11.6,2.2-17.6,2.6c-0.8,0.1-1.6,0.2-2.5,0.2c-1.3,0.1-2.6,0.3-3.8,0.3
		c-3.5,0-7.1-0.2-10.5-0.6c-21.7-2.4-41.9-11.9-57.6-27.6C44,221.4,34,197.2,34,171.5c0-2,0.2-4,0.3-6c1.5-23.5,11.2-45.3,27.9-62.1
		c2.1-2.1,4.3-4,6.5-5.9l0,0c17.3-14.4,38.8-22.3,61.6-22.3c4.2,0,8.3,0.3,12.3,0.8c12.6,1.6,24.7,5.7,35.6,12
		c0.1,0.1,0.3,0.2,0.4,0.2c7.1,4.2,13.8,9.1,19.8,15.1c1.4,1.4,2.7,2.9,4,4.4c0,0,0.1,0.1,0.1,0.2c2.6,3,5,6.2,7.3,9.5
		c1.4,2.1,2.9,4.3,4.1,6.5c7.7,13.5,12.1,28.7,12.6,44.7c0,1,0.1,1.9,0.1,2.9C226.6,197.2,216.6,221.4,198.4,239.6z"/>
	<path class="st1" d="M126.6,206.8H73.7v-11.1l19-19.2c5.6-5.8,9.3-9.8,11-12c1.7-2.2,3-4.3,3.7-6.2c0.8-1.9,1.1-3.9,1.1-5.9
		c0-3-0.8-5.3-2.5-6.8c-1.7-1.5-3.9-2.2-6.7-2.2c-2.9,0-5.8,0.7-8.5,2c-2.8,1.3-5.6,3.3-8.6,5.7l-8.7-10.3c3.7-3.2,6.8-5.4,9.3-6.7
		c2.4-1.3,5.1-2.3,8-3c2.9-0.7,6.1-1.1,9.7-1.1c4.7,0,8.9,0.9,12.5,2.6c3.6,1.7,6.4,4.1,8.4,7.2c2,3.1,3,6.7,3,10.7
		c0,3.5-0.6,6.8-1.8,9.8c-1.2,3.1-3.1,6.2-5.7,9.4c-2.6,3.2-7.1,7.8-13.6,13.7l-9.7,9.2v0.7h33V206.8z"/>
	<path class="st1" d="M188.4,191.2h-9.1v15.7h-15.6v-15.7h-32.3V180l33.2-48.9h14.8v47.6h9.1V191.2z M163.6,178.7v-12.8
		c0-2.1,0.1-5.2,0.3-9.3c0.2-4.1,0.3-6.4,0.4-7.1h-0.4c-1.3,2.8-2.8,5.6-4.6,8.3l-13.9,21H163.6z"/>
	<circle class="st2" cx="130.9" cy="171.9" r="101.3"/>
</g>
</svg>
